<?xml version="1.0" encoding="UTF-8" standalone="no"?>
<!DOCTYPE svg PUBLIC "-//W3C//DTD SVG 1.0//EN" "http://www.w3.org/TR/2001/PR-SVG-20010719/DTD/svg10.dtd">
<svg width="24cm" height="6cm" viewBox="172 85 463 109" xmlns="http://www.w3.org/2000/svg" xmlns:xlink="http://www.w3.org/1999/xlink">
  <g id="Background">
    <g>
      <rect style="fill: #ffffff; fill-opacity: 1; stroke-opacity: 1; stroke-width: 2; stroke: #000000" x="331.125" y="86.7" width="133.95" height="107" rx="0" ry="0"/>
      <text font-size="12.8" style="fill: #000000; fill-opacity: 1; stroke: none;text-anchor:middle;font-family:sans-serif;font-style:normal;font-weight:normal" x="398.1" y="144.1">
        <tspan x="398.1" y="144.1">newt-transformer</tspan>
      </text>
    </g>
    <g>
      <path style="fill: #ffffff; fill-opacity: 1; stroke-opacity: 1; stroke-width: 2; stroke: #000000" fill-rule="evenodd" d="M 506.124 94.7 L 633.074,94.7 L 633.074,188.7 C 607.684,174.6 594.989,169.9 569.599,169.9 C 544.209,169.9 531.514,165.2 506.124,151.1 L 506.124,94.7z"/>
      <text font-size="12.8" style="fill: #000000; fill-opacity: 1; stroke: none;text-anchor:middle;font-family:sans-serif;font-style:normal;font-weight:normal" x="569.599" y="118.9">
        <tspan x="569.599" y="118.9">topmed 107</tspan>
        <tspan x="569.599" y="134.9">dss format</tspan>
      </text>
    </g>
    <g>
      <path style="fill: #ffffff; fill-opacity: 1; stroke-opacity: 1; stroke-width: 2; stroke: #000000" fill-rule="evenodd" d="M 174.1 90.2 L 277.8,90.2 L 277.8,184.2 C 257.06,170.1 246.69,165.4 225.95,165.4 C 205.21,165.4 194.84,160.7 174.1,146.6 L 174.1,90.2z"/>
      <text font-size="12.8" style="fill: #000000; fill-opacity: 1; stroke: none;text-anchor:middle;font-family:sans-serif;font-style:normal;font-weight:normal" x="225.95" y="114.4">
        <tspan x="225.95" y="114.4">topmed 107</tspan>
        <tspan x="225.95" y="130.4">gen3 format</tspan>
      </text>
    </g>
    <g>
      <line style="fill: none; stroke-opacity: 1; stroke-width: 2; stroke: #000000" x1="278.791" y1="138.121" x2="320.394" y2="138.846"/>
      <polygon style="fill: #000000; fill-opacity: 1; stroke-opacity: 1; stroke-width: 2; stroke: #000000" fill-rule="evenodd" points="327.893,138.977 317.808,143.802 320.394,138.846 317.982,133.803 "/>
    </g>
    <g>
      <line style="fill: none; stroke-opacity: 1; stroke-width: 2; stroke: #000000" x1="466.065" y1="140.794" x2="495.467" y2="141.052"/>
      <polygon style="fill: #000000; fill-opacity: 1; stroke-opacity: 1; stroke-width: 2; stroke: #000000" fill-rule="evenodd" points="502.967,141.117 492.924,146.03 495.467,141.052 493.011,136.03 "/>
    </g>
  </g>
</svg>
