<?xml version="1.0" encoding="UTF-8" standalone="no"?>
<!DOCTYPE svg PUBLIC "-//W3C//DTD SVG 1.0//EN" "http://www.w3.org/TR/2001/PR-SVG-20010719/DTD/svg10.dtd">
<svg width="77cm" height="13cm" viewBox="222 305 1535 258" xmlns="http://www.w3.org/2000/svg" xmlns:xlink="http://www.w3.org/1999/xlink">
  <g id="Background">
    <g>
      <rect style="fill: #ffffff; fill-opacity: 1; stroke-opacity: 1; stroke-width: 2; stroke: #000000" x="1118.25" y="306" width="345" height="198" rx="0" ry="0"/>
      <text font-size="12.8" style="fill: #000000; fill-opacity: 1; stroke: none;text-anchor:middle;font-family:sans-serif;font-style:normal;font-weight:normal" x="1290.75" y="408.9">
        <tspan x="1290.75" y="408.9"></tspan>
      </text>
    </g>
    <g>
      <rect style="fill: #ffffff; fill-opacity: 1; stroke-opacity: 1; stroke-width: 2; stroke: #000000" x="564" y="308" width="361" height="194" rx="0" ry="0"/>
      <text font-size="12.8" style="fill: #000000; fill-opacity: 1; stroke: none;text-anchor:middle;font-family:sans-serif;font-style:normal;font-weight:normal" x="744.5" y="408.9">
        <tspan x="744.5" y="408.9"></tspan>
      </text>
    </g>
    <g>
      <rect style="fill: #ffffff; fill-opacity: 1; stroke-opacity: 1; stroke-width: 2; stroke: #000000" x="224" y="316" width="203" height="181" rx="0" ry="0"/>
      <text font-size="12.8" style="fill: #000000; fill-opacity: 1; stroke: none;text-anchor:middle;font-family:sans-serif;font-style:normal;font-weight:normal" x="325.5" y="402.4">
        <tspan x="325.5" y="402.4">UChicago</tspan>
        <tspan x="325.5" y="418.4">gen3</tspan>
      </text>
    </g>
    <g>
      <path style="fill: #ffffff; fill-opacity: 1; stroke-opacity: 1; stroke-width: 2; stroke: #000000" fill-rule="evenodd" d="M 575 382.4 L 770,342 L 770,443 L 575,443 L 575,382.4z"/>
      <text font-size="12.8" style="fill: #000000; fill-opacity: 1; stroke: none;text-anchor:middle;font-family:sans-serif;font-style:normal;font-weight:normal" x="672.5" y="416.7">
        <tspan x="672.5" y="416.7">Extract</tspan>
      </text>
    </g>
    <g>
      <rect style="fill: #ffffff; fill-opacity: 1; stroke-opacity: 1; stroke-width: 2; stroke: #000000" x="957.3" y="345" width="133.4" height="107" rx="0" ry="0"/>
      <text font-size="12.8" style="fill: #000000; fill-opacity: 1; stroke: none;text-anchor:middle;font-family:sans-serif;font-style:normal;font-weight:normal" x="1024" y="402.4">
        <tspan x="1024" y="402.4">newt</tspan>
      </text>
    </g>
    <g>
      <rect style="fill: #ffffff; fill-opacity: 1; stroke-opacity: 1; stroke-width: 2; stroke: #000000" x="1285.07" y="342" width="136.85" height="106" rx="0" ry="0"/>
      <text font-size="12.8" style="fill: #000000; fill-opacity: 1; stroke: none;text-anchor:middle;font-family:sans-serif;font-style:normal;font-weight:normal" x="1353.5" y="398.9">
        <tspan x="1353.5" y="398.9">Load</tspan>
      </text>
    </g>
    <g>
      <rect style="fill: #ffffff; fill-opacity: 1; stroke-opacity: 1; stroke-width: 2; stroke: #000000" x="1553.1" y="307.5" width="203" height="181" rx="0" ry="0"/>
      <text font-size="12.8" style="fill: #000000; fill-opacity: 1; stroke: none;text-anchor:middle;font-family:sans-serif;font-style:normal;font-weight:normal" x="1654.6" y="393.9">
        <tspan x="1654.6" y="393.9">UC Santa Cruz</tspan>
        <tspan x="1654.6" y="409.9">CGP</tspan>
      </text>
    </g>
    <text font-size="12.8" style="fill: #000000; fill-opacity: 1; stroke: none;text-anchor:start;font-family:sans-serif;font-style:normal;font-weight:normal" x="584" y="333">
      <tspan x="584" y="333">sheepdog-exporter</tspan>
    </text>
    <g>
      <line style="fill: none; stroke-opacity: 1; stroke-width: 2; stroke: #000000" x1="904.691" y1="396.421" x2="946.578" y2="397.151"/>
      <polygon style="fill: #000000; fill-opacity: 1; stroke-opacity: 1; stroke-width: 2; stroke: #000000" fill-rule="evenodd" points="954.077,397.281 943.991,402.106 946.578,397.151 944.166,392.108 "/>
    </g>
    <g>
      <line style="fill: none; stroke-opacity: 1; stroke-width: 2; stroke: #000000" x1="1091.68" y1="399.092" x2="1121.37" y2="399.352"/>
      <polygon style="fill: #000000; fill-opacity: 1; stroke-opacity: 1; stroke-width: 2; stroke: #000000" fill-rule="evenodd" points="1128.87,399.417 1118.82,404.33 1121.37,399.352 1118.91,394.33 "/>
    </g>
    <g>
      <line style="fill: none; stroke-opacity: 1; stroke-width: 2; stroke: #000000" x1="1250.9" y1="394.596" x2="1274.38" y2="394.688"/>
      <polygon style="fill: #000000; fill-opacity: 1; stroke-opacity: 1; stroke-width: 2; stroke: #000000" fill-rule="evenodd" points="1281.88,394.718 1271.86,399.679 1274.38,394.688 1271.9,389.679 "/>
    </g>
    <g>
      <path style="fill: #ffffff; fill-opacity: 1; stroke-opacity: 1; stroke-width: 2; stroke: #000000" fill-rule="evenodd" d="M 1132.02 353 L 1258.97,353 L 1258.97,447 C 1233.58,432.9 1220.89,428.2 1195.5,428.2 C 1170.11,428.2 1157.41,423.5 1132.02,409.4 L 1132.02,353z"/>
      <text font-size="12.8" style="fill: #000000; fill-opacity: 1; stroke: none;text-anchor:middle;font-family:sans-serif;font-style:normal;font-weight:normal" x="1195.5" y="377.2">
        <tspan x="1195.5" y="377.2">topmed 107</tspan>
        <tspan x="1195.5" y="393.2">dss format</tspan>
      </text>
    </g>
    <g>
      <path style="fill: #ffffff; fill-opacity: 1; stroke-opacity: 1; stroke-width: 2; stroke: #000000" fill-rule="evenodd" d="M 800 348.5 L 903.7,348.5 L 903.7,442.5 C 882.96,428.4 872.59,423.7 851.85,423.7 C 831.11,423.7 820.74,419 800,404.9 L 800,348.5z"/>
      <text font-size="12.8" style="fill: #000000; fill-opacity: 1; stroke: none;text-anchor:middle;font-family:sans-serif;font-style:normal;font-weight:normal" x="851.85" y="372.7">
        <tspan x="851.85" y="372.7">topmed 107</tspan>
        <tspan x="851.85" y="388.7">gen3 format</tspan>
      </text>
    </g>
    <g>
      <rect style="fill: #ffffff; fill-opacity: 1; stroke-opacity: 1; stroke-width: 2; stroke: #000000" x="394" y="359" width="156" height="45" rx="0" ry="0"/>
      <text font-size="12.8" style="fill: #000000; fill-opacity: 1; stroke: none;text-anchor:middle;font-family:sans-serif;font-style:normal;font-weight:normal" x="472" y="385.4">
        <tspan x="472" y="385.4">sheepdog</tspan>
      </text>
    </g>
    <g>
      <rect style="fill: #ffffff; fill-opacity: 1; stroke-opacity: 1; stroke-width: 2; stroke: #000000" x="395.1" y="428.5" width="156" height="45" rx="0" ry="0"/>
      <text font-size="12.8" style="fill: #000000; fill-opacity: 1; stroke: none;text-anchor:middle;font-family:sans-serif;font-style:normal;font-weight:normal" x="473.1" y="454.9">
        <tspan x="473.1" y="454.9">indexd</tspan>
      </text>
    </g>
    <g>
      <line style="fill: none; stroke-opacity: 1; stroke-width: 2; stroke: #000000" x1="550.957" y1="385.832" x2="564.279" y2="386.563"/>
      <polygon style="fill: #000000; fill-opacity: 1; stroke-opacity: 1; stroke-width: 2; stroke: #000000" fill-rule="evenodd" points="571.767,386.974 561.508,391.418 564.279,386.563 562.056,381.433 "/>
    </g>
    <g>
      <line style="fill: none; stroke-opacity: 1; stroke-width: 2; stroke: #000000" x1="552.086" y1="427.827" x2="564.663" y2="424.137"/>
      <polygon style="fill: #000000; fill-opacity: 1; stroke-opacity: 1; stroke-width: 2; stroke: #000000" fill-rule="evenodd" points="571.859,422.026 563.671,429.639 564.663,424.137 560.856,420.043 "/>
    </g>
    <g>
      <rect style="fill: #ffffff; fill-opacity: 1; stroke-opacity: 1; stroke-width: 2; stroke: #000000" x="1440.1" y="368.5" width="156" height="45" rx="0" ry="0"/>
      <text font-size="12.8" style="fill: #000000; fill-opacity: 1; stroke: none;text-anchor:middle;font-family:sans-serif;font-style:normal;font-weight:normal" x="1518.1" y="394.9">
        <tspan x="1518.1" y="394.9">DSS API</tspan>
      </text>
    </g>
    <g>
      <line style="fill: none; stroke-opacity: 1; stroke-width: 2; stroke: #000000" x1="1421.65" y1="393.344" x2="1429.4" y2="393.155"/>
      <polygon style="fill: #000000; fill-opacity: 1; stroke-opacity: 1; stroke-width: 2; stroke: #000000" fill-rule="evenodd" points="1436.9,392.973 1427.02,398.215 1429.4,393.155 1426.78,388.218 "/>
    </g>
    <text font-size="12.8" style="fill: #000000; fill-opacity: 1; stroke: none;text-anchor:start;font-family:sans-serif;font-style:normal;font-weight:normal" x="1134.35" y="327.4">
      <tspan x="1134.35" y="327.4">cgp-dss-data-loader</tspan>
    </text>
    <g>
      <line style="fill: none; stroke-opacity: 1; stroke-width: 2; stroke: #000000" x1="770" y1="392.5" x2="789.276" y2="393.206"/>
      <polygon style="fill: #000000; fill-opacity: 1; stroke-opacity: 1; stroke-width: 2; stroke: #000000" fill-rule="evenodd" points="796.771,393.481 786.594,398.112 789.276,393.206 786.96,388.118 "/>
    </g>
    <text font-size="12.7998" style="fill: #000000; fill-opacity: 1; stroke: none;text-anchor:start;font-family:sans-serif;font-style:normal;font-weight:normal" x="376" y="527">
      <tspan x="376" y="527">only metadata about Data </tspan>
      <tspan x="376" y="543">Object's are exported, the data</tspan>
      <tspan x="376" y="559">themselves are not transferred</tspan>
    </text>
  </g>
</svg>
