<?xml version="1.0" encoding="UTF-8" standalone="no"?>
<!DOCTYPE svg PUBLIC "-//W3C//DTD SVG 1.0//EN" "http://www.w3.org/TR/2001/PR-SVG-20010719/DTD/svg10.dtd">
<svg width="35cm" height="12cm" viewBox="222 268 683 230" xmlns="http://www.w3.org/2000/svg" xmlns:xlink="http://www.w3.org/1999/xlink">
  <g id="Background">
    <g>
      <rect style="fill: #ffffff; fill-opacity: 1; stroke-opacity: 1; stroke-width: 2; stroke: #000000" x="224" y="316" width="203" height="181" rx="0" ry="0"/>
      <text font-size="12.8" style="fill: #000000; fill-opacity: 1; stroke: none;text-anchor:middle;font-family:sans-serif;font-style:normal;font-weight:normal" x="325.5" y="410.4">
        <tspan x="325.5" y="410.4">Platform A</tspan>
      </text>
    </g>
    <g>
      <path style="fill: #ffffff; fill-opacity: 1; stroke-opacity: 1; stroke-width: 2; stroke: #000000" fill-rule="evenodd" d="M 575 382.4 L 770,342 L 770,443 L 575,443 L 575,382.4z"/>
      <text font-size="12.8" style="fill: #000000; fill-opacity: 1; stroke: none;text-anchor:middle;font-family:sans-serif;font-style:normal;font-weight:normal" x="672.5" y="416.7">
        <tspan x="672.5" y="416.7">Extract</tspan>
      </text>
    </g>
    <text font-size="12.8" style="fill: #000000; fill-opacity: 1; stroke: none;text-anchor:start;font-family:sans-serif;font-style:normal;font-weight:normal" x="483" y="280">
      <tspan x="483" y="280">Extract/Export</tspan>
    </text>
    <g>
      <path style="fill: #ffffff; fill-opacity: 1; stroke-opacity: 1; stroke-width: 2; stroke: #000000" fill-rule="evenodd" d="M 800 348.5 L 903.7,348.5 L 903.7,442.5 C 882.96,428.4 872.59,423.7 851.85,423.7 C 831.11,423.7 820.74,419 800,404.9 L 800,348.5z"/>
      <text font-size="12.8" style="fill: #000000; fill-opacity: 1; stroke: none;text-anchor:middle;font-family:sans-serif;font-style:normal;font-weight:normal" x="851.85" y="372.7">
        <tspan x="851.85" y="372.7">Dataset X</tspan>
        <tspan x="851.85" y="388.7">Format A</tspan>
      </text>
    </g>
    <g>
      <rect style="fill: #ffffff; fill-opacity: 1; stroke-opacity: 1; stroke-width: 2; stroke: #000000" x="394" y="359" width="156" height="45" rx="0" ry="0"/>
      <text font-size="12.8" style="fill: #000000; fill-opacity: 1; stroke: none;text-anchor:middle;font-family:sans-serif;font-style:normal;font-weight:normal" x="472" y="385.4">
        <tspan x="472" y="385.4">Metadata API</tspan>
      </text>
    </g>
    <g>
      <rect style="fill: #ffffff; fill-opacity: 1; stroke-opacity: 1; stroke-width: 2; stroke: #000000" x="395.1" y="428.5" width="156" height="45" rx="0" ry="0"/>
      <text font-size="12.8" style="fill: #000000; fill-opacity: 1; stroke: none;text-anchor:middle;font-family:sans-serif;font-style:normal;font-weight:normal" x="473.1" y="454.9">
        <tspan x="473.1" y="454.9">Data Object Service</tspan>
      </text>
    </g>
    <g>
      <line style="fill: none; stroke-opacity: 1; stroke-width: 2; stroke: #000000" x1="550.957" y1="385.832" x2="564.279" y2="386.563"/>
      <polygon style="fill: #000000; fill-opacity: 1; stroke-opacity: 1; stroke-width: 2; stroke: #000000" fill-rule="evenodd" points="571.767,386.974 561.508,391.418 564.279,386.563 562.056,381.433 "/>
    </g>
    <g>
      <line style="fill: none; stroke-opacity: 1; stroke-width: 2; stroke: #000000" x1="552.086" y1="427.827" x2="564.663" y2="424.137"/>
      <polygon style="fill: #000000; fill-opacity: 1; stroke-opacity: 1; stroke-width: 2; stroke: #000000" fill-rule="evenodd" points="571.859,422.026 563.671,429.639 564.663,424.137 560.856,420.043 "/>
    </g>
    <g>
      <line style="fill: none; stroke-opacity: 1; stroke-width: 2; stroke: #000000" x1="770" y1="392.5" x2="789.276" y2="393.206"/>
      <polygon style="fill: #000000; fill-opacity: 1; stroke-opacity: 1; stroke-width: 2; stroke: #000000" fill-rule="evenodd" points="796.771,393.481 786.594,398.112 789.276,393.206 786.96,388.118 "/>
    </g>
  </g>
</svg>
