<?xml version="1.0" encoding="UTF-8" standalone="no"?>
<!DOCTYPE svg PUBLIC "-//W3C//DTD SVG 1.0//EN" "http://www.w3.org/TR/2001/PR-SVG-20010719/DTD/svg10.dtd">
<svg width="29cm" height="23cm" viewBox="418 232 574 445" xmlns="http://www.w3.org/2000/svg" xmlns:xlink="http://www.w3.org/1999/xlink">
  <g id="Background">
    <g>
      <path style="fill: #ffffff; fill-opacity: 1; stroke-opacity: 1; stroke-width: 2; stroke: #000000" fill-rule="evenodd" d="M 446 456.75 L 570,456.75 L 570,524.306 C 545.2,513.046 532.8,513.046 508,524.306 C 483.2,535.565 470.8,535.565 446,524.306 L 446,456.75z"/>
      <text font-size="12.7998" style="fill: #000000; fill-opacity: 1; stroke: none;text-anchor:middle;font-family:sans-serif;font-style:normal;font-weight:normal" x="508" y="480.898">
        <tspan x="508" y="480.898">Dataset X</tspan>
        <tspan x="508" y="496.898">Format A</tspan>
      </text>
    </g>
    <g>
      <rect style="fill: #ffffff; fill-opacity: 1; stroke-opacity: 1; stroke-width: 2; stroke: #000000" x="420" y="233.75" width="152" height="58" rx="0" ry="0"/>
      <text font-size="12.7998" style="fill: #000000; fill-opacity: 1; stroke: none;text-anchor:middle;font-family:sans-serif;font-style:normal;font-weight:normal" x="496" y="266.65">
        <tspan x="496" y="266.65">Schema Platform A</tspan>
      </text>
    </g>
    <g>
      <path style="fill: #ffffff; fill-opacity: 1; stroke-opacity: 1; stroke-width: 2; stroke: #000000" fill-rule="evenodd" d="M 821.1 599.25 L 945.1,599.25 L 945.1,666.806 C 920.3,655.546 907.9,655.546 883.1,666.806 C 858.3,678.065 845.9,678.065 821.1,666.806 L 821.1,599.25z"/>
      <text font-size="12.7998" style="fill: #000000; fill-opacity: 1; stroke: none;text-anchor:middle;font-family:sans-serif;font-style:normal;font-weight:normal" x="883.1" y="623.398">
        <tspan x="883.1" y="623.398">Dataset X</tspan>
        <tspan x="883.1" y="639.398">Format B</tspan>
      </text>
    </g>
    <g>
      <rect style="fill: #ffffff; fill-opacity: 1; stroke-opacity: 1; stroke-width: 2; stroke: #000000" x="753.1" y="236.25" width="152" height="58" rx="0" ry="0"/>
      <text font-size="12.7998" style="fill: #000000; fill-opacity: 1; stroke: none;text-anchor:middle;font-family:sans-serif;font-style:normal;font-weight:normal" x="829.1" y="269.15">
        <tspan x="829.1" y="269.15">Schema Platform B</tspan>
      </text>
    </g>
    <g>
      <rect style="fill: #ffffff; fill-opacity: 1; stroke-opacity: 1; stroke-width: 2; stroke: #000000" x="618" y="347.75" width="374" height="205" rx="0" ry="0"/>
      <text font-size="12.7998" style="fill: #000000; fill-opacity: 1; stroke: none;text-anchor:middle;font-family:sans-serif;font-style:normal;font-weight:normal" x="805" y="454.15">
        <tspan x="805" y="454.15"></tspan>
      </text>
    </g>
    <g>
      <rect style="fill: #ffffff; fill-opacity: 1; stroke-opacity: 1; stroke-width: 2; stroke: #000000" x="593.8" y="245.75" width="138.4" height="38" rx="0" ry="0"/>
      <text font-size="12.7998" style="fill: #000000; fill-opacity: 1; stroke: none;text-anchor:middle;font-family:sans-serif;font-style:normal;font-weight:normal" x="663" y="268.65">
        <tspan x="663" y="268.65">mapping ontology</tspan>
      </text>
    </g>
    <g>
      <rect style="fill: #ffffff; fill-opacity: 1; stroke-opacity: 1; stroke-width: 2; stroke: #000000" x="635" y="359.75" width="145" height="55" rx="0" ry="0"/>
      <text font-size="12.7998" style="fill: #000000; fill-opacity: 1; stroke: none;text-anchor:middle;font-family:sans-serif;font-style:normal;font-weight:normal" x="707.5" y="391.15">
        <tspan x="707.5" y="391.15">map keys</tspan>
      </text>
    </g>
    <g>
      <rect style="fill: #ffffff; fill-opacity: 1; stroke-opacity: 1; stroke-width: 2; stroke: #000000" x="634" y="485.75" width="144.375" height="57" rx="0" ry="0"/>
      <text font-size="12.7998" style="fill: #000000; fill-opacity: 1; stroke: none;text-anchor:middle;font-family:sans-serif;font-style:normal;font-weight:normal" x="706.187" y="510.15">
        <tspan x="706.187" y="510.15">assemble data </tspan>
        <tspan x="706.187" y="526.15">object manifest</tspan>
      </text>
    </g>
    <g>
      <polyline style="fill: none; stroke-opacity: 1; stroke-width: 2; stroke: #000000" points="663,283.75 663,321.247 707.5,321.247 707.5,349.007 "/>
      <polygon style="fill: #000000; fill-opacity: 1; stroke-opacity: 1; stroke-width: 2; stroke: #000000" fill-rule="evenodd" points="707.5,356.507 702.5,346.507 707.5,349.007 712.5,346.507 "/>
    </g>
    <g>
      <polyline style="fill: none; stroke-opacity: 1; stroke-width: 2; stroke: #000000" points="829.1,294.25 829.1,320.75 707.5,320.75 707.5,350.014 "/>
      <polygon style="fill: #000000; fill-opacity: 1; stroke-opacity: 1; stroke-width: 2; stroke: #000000" fill-rule="evenodd" points="707.5,357.514 702.5,347.514 707.5,350.014 712.5,347.514 "/>
    </g>
    <g>
      <rect style="fill: #ffffff; fill-opacity: 1; stroke-opacity: 1; stroke-width: 2; stroke: #000000" x="826" y="406.75" width="118" height="54" rx="0" ry="0"/>
      <text font-size="12.7998" style="fill: #000000; fill-opacity: 1; stroke: none;text-anchor:middle;font-family:sans-serif;font-style:normal;font-weight:normal" x="885" y="437.65">
        <tspan x="885" y="437.65">reify objects</tspan>
      </text>
    </g>
    <g>
      <rect style="fill: #ffffff; fill-opacity: 1; stroke-opacity: 1; stroke-width: 2; stroke: #000000" x="631.725" y="422.25" width="149.2" height="55" rx="0" ry="0"/>
      <text font-size="12.7998" style="fill: #000000; fill-opacity: 1; stroke: none;text-anchor:middle;font-family:sans-serif;font-style:normal;font-weight:normal" x="706.325" y="453.65">
        <tspan x="706.325" y="453.65">assemble metadata</tspan>
      </text>
    </g>
    <g>
      <rect style="fill: #ffffff; fill-opacity: 1; stroke-opacity: 1; stroke-width: 2; stroke: #000000" x="820.55" y="490.25" width="125.1" height="54" rx="0" ry="0"/>
      <text font-size="12.7998" style="fill: #000000; fill-opacity: 1; stroke: none;text-anchor:middle;font-family:sans-serif;font-style:normal;font-weight:normal" x="883.1" y="521.15">
        <tspan x="883.1" y="521.15">serialize objects</tspan>
      </text>
    </g>
    <g>
      <line style="fill: none; stroke-opacity: 1; stroke-width: 2; stroke: #000000" x1="884.363" y1="461.74" x2="883.958" y2="479.527"/>
      <polygon style="fill: #000000; fill-opacity: 1; stroke-opacity: 1; stroke-width: 2; stroke: #000000" fill-rule="evenodd" points="883.788,487.025 879.017,476.914 883.958,479.527 889.014,477.141 "/>
    </g>
    <g>
      <line style="fill: none; stroke-opacity: 1; stroke-width: 2; stroke: #000000" x1="883.1" y1="545.245" x2="883.1" y2="588.514"/>
      <polygon style="fill: #000000; fill-opacity: 1; stroke-opacity: 1; stroke-width: 2; stroke: #000000" fill-rule="evenodd" points="883.1,596.014 878.1,586.014 883.1,588.514 888.1,586.014 "/>
    </g>
    <g>
      <polyline style="fill: none; stroke-opacity: 1; stroke-width: 2; stroke: #000000" points="570,490.528 600.358,490.528 600.358,449.75 620.98,449.75 "/>
      <polygon style="fill: #000000; fill-opacity: 1; stroke-opacity: 1; stroke-width: 2; stroke: #000000" fill-rule="evenodd" points="628.48,449.75 618.48,454.75 620.98,449.75 618.48,444.75 "/>
    </g>
    <g>
      <polyline style="fill: none; stroke-opacity: 1; stroke-width: 2; stroke: #000000" points="570,490.528 600,490.528 600,514.25 623.26,514.25 "/>
      <polygon style="fill: #000000; fill-opacity: 1; stroke-opacity: 1; stroke-width: 2; stroke: #000000" fill-rule="evenodd" points="630.76,514.25 620.76,519.25 623.26,514.25 620.76,509.25 "/>
    </g>
    <g>
      <polyline style="fill: none; stroke-opacity: 1; stroke-width: 2; stroke: #000000" points="780,387.25 802.496,387.25 802.496,433.75 815.257,433.75 "/>
      <polygon style="fill: #000000; fill-opacity: 1; stroke-opacity: 1; stroke-width: 2; stroke: #000000" fill-rule="evenodd" points="822.757,433.75 812.757,438.75 815.257,433.75 812.757,428.75 "/>
    </g>
    <g>
      <polyline style="fill: none; stroke-opacity: 1; stroke-width: 2; stroke: #000000" points="780.925,449.75 802.959,449.75 802.959,433.75 815.257,433.75 "/>
      <polygon style="fill: #000000; fill-opacity: 1; stroke-opacity: 1; stroke-width: 2; stroke: #000000" fill-rule="evenodd" points="822.757,433.75 812.757,438.75 815.257,433.75 812.757,428.75 "/>
    </g>
    <g>
      <polyline style="fill: none; stroke-opacity: 1; stroke-width: 2; stroke: #000000" points="778.375,514.25 801.684,514.25 801.684,433.75 815.257,433.75 "/>
      <polygon style="fill: #000000; fill-opacity: 1; stroke-opacity: 1; stroke-width: 2; stroke: #000000" fill-rule="evenodd" points="822.757,433.75 812.757,438.75 815.257,433.75 812.757,428.75 "/>
    </g>
    <text font-size="12.7998" style="fill: #000000; fill-opacity: 1; stroke: none;text-anchor:start;font-family:sans-serif;font-style:normal;font-weight:normal" x="846" y="377.75">
      <tspan x="846" y="377.75">Transformer</tspan>
    </text>
    <g>
      <polyline style="fill: none; stroke-opacity: 1; stroke-width: 2; stroke: #000000" points="494,294.75 494,320.75 707.5,320.75 707.5,350.014 "/>
      <polygon style="fill: #000000; fill-opacity: 1; stroke-opacity: 1; stroke-width: 2; stroke: #000000" fill-rule="evenodd" points="707.5,357.514 702.5,347.514 707.5,350.014 712.5,347.514 "/>
    </g>
  </g>
</svg>
