<?xml version="1.0" encoding="UTF-8" standalone="no"?>
<!DOCTYPE svg PUBLIC "-//W3C//DTD SVG 1.0//EN" "http://www.w3.org/TR/2001/PR-SVG-20010719/DTD/svg10.dtd">
<svg width="53cm" height="36cm" viewBox="1 89 1041 720" xmlns="http://www.w3.org/2000/svg" xmlns:xlink="http://www.w3.org/1999/xlink">
  <g id="Background">
    <text font-size="12.7998" style="fill: #000000; fill-opacity: 1; stroke: none;text-anchor:start;font-family:sans-serif;font-style:normal;font-weight:normal" x="407" y="101">
      <tspan x="407" y="101">Commons Alliance Components</tspan>
    </text>
    <g>
      <rect style="fill: #ffffff; fill-opacity: 1; stroke-opacity: 1; stroke-width: 2; stroke: #000000" x="302" y="116" width="420" height="314" rx="0" ry="0"/>
      <text font-size="12.7998" style="fill: #000000; fill-opacity: 1; stroke: none;text-anchor:middle;font-family:sans-serif;font-style:normal;font-weight:normal" x="512" y="276.9">
        <tspan x="512" y="276.9"></tspan>
      </text>
    </g>
    <g>
      <path style="fill: #ffffff; fill-opacity: 1; stroke-opacity: 1; stroke-width: 2; stroke: #000000" fill-rule="evenodd" d="M 408 320.167 C 424,308.042 432,304 448,304 C 464,304 472,308.042 488,320.167 L 488,384.833 C 472,396.958 464,401 448,401 C 432,401 424,396.958 408,384.833 L 408,320.167z"/>
      <path style="fill: none; stroke-opacity: 1; stroke-width: 2; stroke: #000000" d="M 408 320.167 C 424,332.292 432,336.333 448,336.333 C 464,336.333 472,332.292 488,320.167"/>
      <text font-size="12.7998" style="fill: #000000; fill-opacity: 1; stroke: none;text-anchor:middle;font-family:sans-serif;font-style:normal;font-weight:normal" x="448" y="364.583">
        <tspan x="448" y="364.583">HCA DSS</tspan>
      </text>
    </g>
    <g>
      <polygon style="fill: #ffffff; fill-opacity: 1; stroke-opacity: 1; stroke-width: 2; stroke: #000000" fill-rule="evenodd" points="445.796,153 560.119,153 543.013,200 428.689,200 "/>
      <text font-size="12.7998" style="fill: #000000; fill-opacity: 1; stroke: none;text-anchor:middle;font-family:sans-serif;font-style:normal;font-weight:normal" x="494.404" y="180.4">
        <tspan x="494.404" y="180.4">Boardwalk</tspan>
      </text>
    </g>
    <g>
      <path style="fill: #ffffff; fill-opacity: 1; stroke-opacity: 1; stroke-width: 2; stroke: #000000" fill-rule="evenodd" d="M 580 230 L 703.583,230 L 678.867,297 L 604.717,297 L 580,230z"/>
      <text font-size="12.7998" style="fill: #000000; fill-opacity: 1; stroke: none;text-anchor:middle;font-family:sans-serif;font-style:normal;font-weight:normal" x="641.792" y="267.5">
        <tspan x="641.792" y="267.5">Dockstore</tspan>
      </text>
    </g>
    <g>
      <rect style="fill: #ffffff; fill-opacity: 1; stroke-opacity: 1; stroke-width: 2; stroke: #000000" x="584.75" y="143" width="120.25" height="67" rx="0" ry="0"/>
      <line style="fill: none; stroke-opacity: 1; stroke-width: 2; stroke: #000000" x1="596.775" y1="143" x2="596.775" y2="210"/>
      <line style="fill: none; stroke-opacity: 1; stroke-width: 2; stroke: #000000" x1="584.75" y1="149.7" x2="705" y2="149.7"/>
      <text font-size="12.7998" style="fill: #000000; fill-opacity: 1; stroke: none;text-anchor:middle;font-family:sans-serif;font-style:normal;font-weight:normal" x="650.887" y="183.85">
        <tspan x="650.887" y="183.85"></tspan>
      </text>
    </g>
    <g>
      <ellipse style="fill: #ffffff; fill-opacity: 1; stroke-opacity: 1; stroke-width: 2; stroke: #000000" cx="502.786" cy="261" rx="71.9488" ry="32"/>
      <line style="fill: none; stroke-opacity: 1; stroke-width: 2; stroke: #000000" x1="502.786" y1="293" x2="574.734" y2="293"/>
      <text font-size="12.7998" style="fill: #000000; fill-opacity: 1; stroke: none;text-anchor:middle;font-family:sans-serif;font-style:normal;font-weight:normal" x="502.786" y="257">
        <tspan x="502.786" y="257">cgp-dashboard</tspan>
        <tspan x="502.786" y="273">-service</tspan>
      </text>
    </g>
    <g>
      <path style="fill: #ffffff; fill-opacity: 1; stroke-opacity: 1; stroke-width: 2; stroke: #000000" fill-rule="evenodd" d="M 310.625 252.167 L 421.375,226.833 L 421.375,290.167 L 310.625,290.167 L 310.625,252.167z"/>
      <text font-size="12.7998" style="fill: #000000; fill-opacity: 1; stroke: none;text-anchor:middle;font-family:sans-serif;font-style:normal;font-weight:normal" x="366" y="275.167">
        <tspan x="366" y="275.167">dss-azul-indexer</tspan>
      </text>
    </g>
    <g>
      <rect style="fill: #ffffff; fill-opacity: 1; stroke-opacity: 1; stroke-width: 2; stroke: #000000" x="2.1" y="493.7" width="420" height="314" rx="0" ry="0"/>
      <text font-size="12.7998" style="fill: #000000; fill-opacity: 1; stroke: none;text-anchor:middle;font-family:sans-serif;font-style:normal;font-weight:normal" x="212.1" y="654.6">
        <tspan x="212.1" y="654.6"></tspan>
      </text>
    </g>
    <g>
      <path style="fill: #ffffff; fill-opacity: 1; stroke-opacity: 1; stroke-width: 2; stroke: #000000" fill-rule="evenodd" d="M 108.1 697.867 C 124.1,685.742 132.1,681.7 148.1,681.7 C 164.1,681.7 172.1,685.742 188.1,697.867 L 188.1,762.533 C 172.1,774.658 164.1,778.7 148.1,778.7 C 132.1,778.7 124.1,774.658 108.1,762.533 L 108.1,697.867z"/>
      <path style="fill: none; stroke-opacity: 1; stroke-width: 2; stroke: #000000" d="M 108.1 697.867 C 124.1,709.992 132.1,714.033 148.1,714.033 C 164.1,714.033 172.1,709.992 188.1,697.867"/>
      <text font-size="12.7998" style="fill: #000000; fill-opacity: 1; stroke: none;text-anchor:middle;font-family:sans-serif;font-style:normal;font-weight:normal" x="148.1" y="742.283">
        <tspan x="148.1" y="742.283">indexd</tspan>
      </text>
    </g>
    <g>
      <polygon style="fill: #ffffff; fill-opacity: 1; stroke-opacity: 1; stroke-width: 2; stroke: #000000" fill-rule="evenodd" points="145.896,530.7 260.219,530.7 243.113,577.7 128.789,577.7 "/>
      <text font-size="12.7998" style="fill: #000000; fill-opacity: 1; stroke: none;text-anchor:middle;font-family:sans-serif;font-style:normal;font-weight:normal" x="194.504" y="558.1">
        <tspan x="194.504" y="558.1">Windmill</tspan>
      </text>
    </g>
    <g>
      <path style="fill: #ffffff; fill-opacity: 1; stroke-opacity: 1; stroke-width: 2; stroke: #000000" fill-rule="evenodd" d="M 280.1 607.7 L 403.683,607.7 L 378.967,674.7 L 304.817,674.7 L 280.1,607.7z"/>
      <text font-size="12.7998" style="fill: #000000; fill-opacity: 1; stroke: none;text-anchor:middle;font-family:sans-serif;font-style:normal;font-weight:normal" x="341.892" y="645.2">
        <tspan x="341.892" y="645.2"></tspan>
      </text>
    </g>
    <g>
      <rect style="fill: #ffffff; fill-opacity: 1; stroke-opacity: 1; stroke-width: 2; stroke: #000000" x="284.85" y="520.7" width="120.25" height="67" rx="0" ry="0"/>
      <line style="fill: none; stroke-opacity: 1; stroke-width: 2; stroke: #000000" x1="296.875" y1="520.7" x2="296.875" y2="587.7"/>
      <line style="fill: none; stroke-opacity: 1; stroke-width: 2; stroke: #000000" x1="284.85" y1="527.4" x2="405.1" y2="527.4"/>
      <text font-size="12.7998" style="fill: #000000; fill-opacity: 1; stroke: none;text-anchor:middle;font-family:sans-serif;font-style:normal;font-weight:normal" x="350.987" y="561.55">
        <tspan x="350.987" y="561.55"></tspan>
      </text>
    </g>
    <g>
      <ellipse style="fill: #ffffff; fill-opacity: 1; stroke-opacity: 1; stroke-width: 2; stroke: #000000" cx="190.886" cy="633.7" rx="56.2144" ry="32"/>
      <line style="fill: none; stroke-opacity: 1; stroke-width: 2; stroke: #000000" x1="190.886" y1="665.7" x2="247.1" y2="665.7"/>
      <text font-size="12.7998" style="fill: #000000; fill-opacity: 1; stroke: none;text-anchor:middle;font-family:sans-serif;font-style:normal;font-weight:normal" x="190.886" y="637.7">
        <tspan x="190.886" y="637.7">peregrine</tspan>
      </text>
    </g>
    <g>
      <path style="fill: #ffffff; fill-opacity: 1; stroke-opacity: 1; stroke-width: 2; stroke: #000000" fill-rule="evenodd" d="M 10.725 629.867 L 121.475,604.533 L 121.475,667.867 L 10.725,667.867 L 10.725,629.867z"/>
      <text font-size="12.7998" style="fill: #000000; fill-opacity: 1; stroke: none;text-anchor:middle;font-family:sans-serif;font-style:normal;font-weight:normal" x="66.1" y="652.867">
        <tspan x="66.1" y="652.867">sheepdog</tspan>
      </text>
    </g>
    <g>
      <rect style="fill: #ffffff; fill-opacity: 1; stroke-opacity: 1; stroke-width: 2; stroke: #000000" x="621.1" y="490.7" width="420" height="314" rx="0" ry="0"/>
      <text font-size="12.7998" style="fill: #000000; fill-opacity: 1; stroke: none;text-anchor:middle;font-family:sans-serif;font-style:normal;font-weight:normal" x="831.1" y="651.6">
        <tspan x="831.1" y="651.6"></tspan>
      </text>
    </g>
    <g>
      <path style="fill: #ffffff; fill-opacity: 1; stroke-opacity: 1; stroke-width: 2; stroke: #000000" fill-rule="evenodd" d="M 727.1 694.867 C 743.1,682.742 751.1,678.7 767.1,678.7 C 783.1,678.7 791.1,682.742 807.1,694.867 L 807.1,759.533 C 791.1,771.658 783.1,775.7 767.1,775.7 C 751.1,775.7 743.1,771.658 727.1,759.533 L 727.1,694.867z"/>
      <path style="fill: none; stroke-opacity: 1; stroke-width: 2; stroke: #000000" d="M 727.1 694.867 C 743.1,706.992 751.1,711.033 767.1,711.033 C 783.1,711.033 791.1,706.992 807.1,694.867"/>
      <text font-size="12.7998" style="fill: #000000; fill-opacity: 1; stroke: none;text-anchor:middle;font-family:sans-serif;font-style:normal;font-weight:normal" x="767.1" y="739.283">
        <tspan x="767.1" y="739.283"></tspan>
      </text>
    </g>
    <g>
      <polygon style="fill: #ffffff; fill-opacity: 1; stroke-opacity: 1; stroke-width: 2; stroke: #000000" fill-rule="evenodd" points="764.896,527.7 879.219,527.7 862.113,574.7 747.789,574.7 "/>
      <text font-size="12.7998" style="fill: #000000; fill-opacity: 1; stroke: none;text-anchor:middle;font-family:sans-serif;font-style:normal;font-weight:normal" x="813.504" y="555.1">
        <tspan x="813.504" y="555.1">Firecloud</tspan>
      </text>
    </g>
    <g>
      <path style="fill: #ffffff; fill-opacity: 1; stroke-opacity: 1; stroke-width: 2; stroke: #000000" fill-rule="evenodd" d="M 899.1 604.7 L 1022.68,604.7 L 997.967,671.7 L 923.817,671.7 L 899.1,604.7z"/>
      <text font-size="12.7998" style="fill: #000000; fill-opacity: 1; stroke: none;text-anchor:middle;font-family:sans-serif;font-style:normal;font-weight:normal" x="960.892" y="642.2">
        <tspan x="960.892" y="642.2">Agora</tspan>
      </text>
    </g>
    <g>
      <rect style="fill: #ffffff; fill-opacity: 1; stroke-opacity: 1; stroke-width: 2; stroke: #000000" x="903.85" y="517.7" width="120.25" height="67" rx="0" ry="0"/>
      <line style="fill: none; stroke-opacity: 1; stroke-width: 2; stroke: #000000" x1="915.875" y1="517.7" x2="915.875" y2="584.7"/>
      <line style="fill: none; stroke-opacity: 1; stroke-width: 2; stroke: #000000" x1="903.85" y1="524.4" x2="1024.1" y2="524.4"/>
      <text font-size="12.7998" style="fill: #000000; fill-opacity: 1; stroke: none;text-anchor:middle;font-family:sans-serif;font-style:normal;font-weight:normal" x="969.987" y="558.55">
        <tspan x="969.987" y="558.55">Firecloud</tspan>
      </text>
    </g>
    <g>
      <ellipse style="fill: #ffffff; fill-opacity: 1; stroke-opacity: 1; stroke-width: 2; stroke: #000000" cx="809.886" cy="630.7" rx="56.2144" ry="32"/>
      <line style="fill: none; stroke-opacity: 1; stroke-width: 2; stroke: #000000" x1="809.886" y1="662.7" x2="866.1" y2="662.7"/>
      <text font-size="12.7998" style="fill: #000000; fill-opacity: 1; stroke: none;text-anchor:middle;font-family:sans-serif;font-style:normal;font-weight:normal" x="809.886" y="634.7">
        <tspan x="809.886" y="634.7"></tspan>
      </text>
    </g>
    <g>
      <path style="fill: #ffffff; fill-opacity: 1; stroke-opacity: 1; stroke-width: 2; stroke: #000000" fill-rule="evenodd" d="M 629.725 626.867 L 740.475,601.533 L 740.475,664.867 L 629.725,664.867 L 629.725,626.867z"/>
      <text font-size="12.7998" style="fill: #000000; fill-opacity: 1; stroke: none;text-anchor:middle;font-family:sans-serif;font-style:normal;font-weight:normal" x="685.1" y="649.867">
        <tspan x="685.1" y="649.867"></tspan>
      </text>
    </g>
  </g>
</svg>
