<?xml version="1.0" encoding="UTF-8" standalone="no"?>
<!DOCTYPE svg PUBLIC "-//W3C//DTD SVG 1.0//EN" "http://www.w3.org/TR/2001/PR-SVG-20010719/DTD/svg10.dtd">
<svg width="54cm" height="36cm" viewBox="1 89 1080 720" xmlns="http://www.w3.org/2000/svg" xmlns:xlink="http://www.w3.org/1999/xlink">
  <g id="Background">
    <text font-size="12.8" style="fill: #000000; fill-opacity: 1; stroke: none;text-anchor:start;font-family:sans-serif;font-style:normal;font-weight:normal" x="407" y="101">
      <tspan x="407" y="101">Commons Alliance Components</tspan>
    </text>
    <g>
      <rect style="fill: #ffffff; fill-opacity: 1; stroke-opacity: 1; stroke-width: 2; stroke: #000000" x="302" y="116" width="420" height="314" rx="0" ry="0"/>
      <text font-size="12.8" style="fill: #000000; fill-opacity: 1; stroke: none;text-anchor:middle;font-family:sans-serif;font-style:normal;font-weight:normal" x="512" y="276.9">
        <tspan x="512" y="276.9"></tspan>
      </text>
    </g>
    <g>
      <path style="fill: #ffffff; fill-opacity: 1; stroke-opacity: 1; stroke-width: 2; stroke: #000000" fill-rule="evenodd" d="M 457 326.167 C 473,314.042 481,310 497,310 C 513,310 521,314.042 537,326.167 L 537,390.833 C 521,402.958 513,407 497,407 C 481,407 473,402.958 457,390.833 L 457,326.167z"/>
      <path style="fill: none; stroke-opacity: 1; stroke-width: 2; stroke: #000000" d="M 457 326.167 C 473,338.292 481,342.333 497,342.333 C 513,342.333 521,338.292 537,326.167"/>
      <text font-size="12.8" style="fill: #000000; fill-opacity: 1; stroke: none;text-anchor:middle;font-family:sans-serif;font-style:normal;font-weight:normal" x="497" y="370.583">
        <tspan x="497" y="370.583">HCA DSS</tspan>
      </text>
    </g>
    <g>
      <polygon style="fill: #ffffff; fill-opacity: 1; stroke-opacity: 1; stroke-width: 2; stroke: #000000" fill-rule="evenodd" points="445.797,153 560.12,153 543.014,200 428.69,200 "/>
      <text font-size="12.8" style="fill: #000000; fill-opacity: 1; stroke: none;text-anchor:middle;font-family:sans-serif;font-style:normal;font-weight:normal" x="494.405" y="180.4">
        <tspan x="494.405" y="180.4">Boardwalk</tspan>
      </text>
    </g>
    <g>
      <path style="fill: #ffffff; fill-opacity: 1; stroke-opacity: 1; stroke-width: 2; stroke: #000000" fill-rule="evenodd" d="M 580 230 L 703.583,230 L 678.867,297 L 604.717,297 L 580,230z"/>
      <text font-size="12.8" style="fill: #000000; fill-opacity: 1; stroke: none;text-anchor:middle;font-family:sans-serif;font-style:normal;font-weight:normal" x="641.792" y="267.5">
        <tspan x="641.792" y="267.5">Dockstore</tspan>
      </text>
    </g>
    <g>
      <rect style="fill: #ffffff; fill-opacity: 1; stroke-opacity: 1; stroke-width: 2; stroke: #000000" x="584.75" y="143" width="120.25" height="67" rx="0" ry="0"/>
      <line style="fill: none; stroke-opacity: 1; stroke-width: 2; stroke: #000000" x1="596.775" y1="143" x2="596.775" y2="210"/>
      <line style="fill: none; stroke-opacity: 1; stroke-width: 2; stroke: #000000" x1="584.75" y1="149.7" x2="705" y2="149.7"/>
      <text font-size="12.8" style="fill: #000000; fill-opacity: 1; stroke: none;text-anchor:middle;font-family:sans-serif;font-style:normal;font-weight:normal" x="650.888" y="183.85">
        <tspan x="650.888" y="183.85">n/a</tspan>
      </text>
    </g>
    <g>
      <ellipse style="fill: #ffffff; fill-opacity: 1; stroke-opacity: 1; stroke-width: 2; stroke: #000000" cx="502.785" cy="261" rx="71.9488" ry="32"/>
      <line style="fill: none; stroke-opacity: 1; stroke-width: 2; stroke: #000000" x1="502.785" y1="293" x2="574.734" y2="293"/>
      <text font-size="12.8" style="fill: #000000; fill-opacity: 1; stroke: none;text-anchor:middle;font-family:sans-serif;font-style:normal;font-weight:normal" x="502.785" y="257">
        <tspan x="502.785" y="257">cgp-dashboard</tspan>
        <tspan x="502.785" y="273">-service</tspan>
      </text>
    </g>
    <g>
      <path style="fill: #ffffff; fill-opacity: 1; stroke-opacity: 1; stroke-width: 2; stroke: #000000" fill-rule="evenodd" d="M 310.626 252.167 L 421.376,226.834 L 421.376,290.167 L 310.626,290.167 L 310.626,252.167z"/>
      <text font-size="12.8" style="fill: #000000; fill-opacity: 1; stroke: none;text-anchor:middle;font-family:sans-serif;font-style:normal;font-weight:normal" x="366.001" y="275.167">
        <tspan x="366.001" y="275.167">dss-azul-indexer</tspan>
      </text>
    </g>
    <g>
      <rect style="fill: #ffffff; fill-opacity: 1; stroke-opacity: 1; stroke-width: 2; stroke: #000000" x="2.1" y="493.7" width="420" height="314" rx="0" ry="0"/>
      <text font-size="12.8" style="fill: #000000; fill-opacity: 1; stroke: none;text-anchor:middle;font-family:sans-serif;font-style:normal;font-weight:normal" x="212.1" y="654.6">
        <tspan x="212.1" y="654.6"></tspan>
      </text>
    </g>
    <g>
      <path style="fill: #ffffff; fill-opacity: 1; stroke-opacity: 1; stroke-width: 2; stroke: #000000" fill-rule="evenodd" d="M 168.1 705.867 C 184.1,693.742 192.1,689.7 208.1,689.7 C 224.1,689.7 232.1,693.742 248.1,705.867 L 248.1,770.533 C 232.1,782.658 224.1,786.7 208.1,786.7 C 192.1,786.7 184.1,782.658 168.1,770.533 L 168.1,705.867z"/>
      <path style="fill: none; stroke-opacity: 1; stroke-width: 2; stroke: #000000" d="M 168.1 705.867 C 184.1,717.992 192.1,722.033 208.1,722.033 C 224.1,722.033 232.1,717.992 248.1,705.867"/>
      <text font-size="12.8" style="fill: #000000; fill-opacity: 1; stroke: none;text-anchor:middle;font-family:sans-serif;font-style:normal;font-weight:normal" x="208.1" y="750.283">
        <tspan x="208.1" y="750.283">indexd</tspan>
      </text>
    </g>
    <g>
      <polygon style="fill: #ffffff; fill-opacity: 1; stroke-opacity: 1; stroke-width: 2; stroke: #000000" fill-rule="evenodd" points="145.896,530.7 260.22,530.7 243.113,577.7 128.789,577.7 "/>
      <text font-size="12.8" style="fill: #000000; fill-opacity: 1; stroke: none;text-anchor:middle;font-family:sans-serif;font-style:normal;font-weight:normal" x="194.504" y="558.1">
        <tspan x="194.504" y="558.1">Windmill</tspan>
      </text>
    </g>
    <g>
      <path style="fill: #ffffff; fill-opacity: 1; stroke-opacity: 1; stroke-width: 2; stroke: #000000" fill-rule="evenodd" d="M 280.1 607.7 L 403.683,607.7 L 378.967,674.7 L 304.817,674.7 L 280.1,607.7z"/>
      <text font-size="12.8" style="fill: #000000; fill-opacity: 1; stroke: none;text-anchor:middle;font-family:sans-serif;font-style:normal;font-weight:normal" x="341.892" y="645.2">
        <tspan x="341.892" y="645.2">n/a?</tspan>
      </text>
    </g>
    <g>
      <rect style="fill: #ffffff; fill-opacity: 1; stroke-opacity: 1; stroke-width: 2; stroke: #000000" x="284.85" y="520.7" width="120.25" height="67" rx="0" ry="0"/>
      <line style="fill: none; stroke-opacity: 1; stroke-width: 2; stroke: #000000" x1="296.875" y1="520.7" x2="296.875" y2="587.7"/>
      <line style="fill: none; stroke-opacity: 1; stroke-width: 2; stroke: #000000" x1="284.85" y1="527.4" x2="405.1" y2="527.4"/>
      <text font-size="12.8" style="fill: #000000; fill-opacity: 1; stroke: none;text-anchor:middle;font-family:sans-serif;font-style:normal;font-weight:normal" x="350.988" y="561.55">
        <tspan x="350.988" y="561.55">jupyterhub?</tspan>
      </text>
    </g>
    <g>
      <ellipse style="fill: #ffffff; fill-opacity: 1; stroke-opacity: 1; stroke-width: 2; stroke: #000000" cx="190.886" cy="633.7" rx="56.2144" ry="32"/>
      <line style="fill: none; stroke-opacity: 1; stroke-width: 2; stroke: #000000" x1="190.886" y1="665.7" x2="247.1" y2="665.7"/>
      <text font-size="12.8" style="fill: #000000; fill-opacity: 1; stroke: none;text-anchor:middle;font-family:sans-serif;font-style:normal;font-weight:normal" x="190.886" y="637.7">
        <tspan x="190.886" y="637.7">peregrine</tspan>
      </text>
    </g>
    <g>
      <path style="fill: #ffffff; fill-opacity: 1; stroke-opacity: 1; stroke-width: 2; stroke: #000000" fill-rule="evenodd" d="M 10.725 629.867 L 121.475,604.534 L 121.475,667.867 L 10.725,667.867 L 10.725,629.867z"/>
      <text font-size="12.8" style="fill: #000000; fill-opacity: 1; stroke: none;text-anchor:middle;font-family:sans-serif;font-style:normal;font-weight:normal" x="66.1" y="652.867">
        <tspan x="66.1" y="652.867">sheepdog</tspan>
      </text>
    </g>
    <g>
      <rect style="fill: #ffffff; fill-opacity: 1; stroke-opacity: 1; stroke-width: 2; stroke: #000000" x="621.1" y="490.7" width="420" height="314" rx="0" ry="0"/>
      <text font-size="12.8" style="fill: #000000; fill-opacity: 1; stroke: none;text-anchor:middle;font-family:sans-serif;font-style:normal;font-weight:normal" x="831.1" y="651.6">
        <tspan x="831.1" y="651.6"></tspan>
      </text>
    </g>
    <g>
      <path style="fill: #ffffff; fill-opacity: 1; stroke-opacity: 1; stroke-width: 2; stroke: #000000" fill-rule="evenodd" d="M 771.1 699.867 C 787.1,687.742 795.1,683.7 811.1,683.7 C 827.1,683.7 835.1,687.742 851.1,699.867 L 851.1,764.533 C 835.1,776.658 827.1,780.7 811.1,780.7 C 795.1,780.7 787.1,776.658 771.1,764.533 L 771.1,699.867z"/>
      <path style="fill: none; stroke-opacity: 1; stroke-width: 2; stroke: #000000" d="M 771.1 699.867 C 787.1,711.992 795.1,716.033 811.1,716.033 C 827.1,716.033 835.1,711.992 851.1,699.867"/>
      <text font-size="12.8" style="fill: #000000; fill-opacity: 1; stroke: none;text-anchor:middle;font-family:sans-serif;font-style:normal;font-weight:normal" x="811.1" y="744.283">
        <tspan x="811.1" y="744.283"></tspan>
      </text>
    </g>
    <g>
      <polygon style="fill: #ffffff; fill-opacity: 1; stroke-opacity: 1; stroke-width: 2; stroke: #000000" fill-rule="evenodd" points="764.897,527.7 879.22,527.7 862.114,574.7 747.79,574.7 "/>
      <text font-size="12.8" style="fill: #000000; fill-opacity: 1; stroke: none;text-anchor:middle;font-family:sans-serif;font-style:normal;font-weight:normal" x="813.505" y="555.1">
        <tspan x="813.505" y="555.1">Firecloud</tspan>
      </text>
    </g>
    <g>
      <path style="fill: #ffffff; fill-opacity: 1; stroke-opacity: 1; stroke-width: 2; stroke: #000000" fill-rule="evenodd" d="M 899.1 604.7 L 1022.68,604.7 L 997.967,671.7 L 923.817,671.7 L 899.1,604.7z"/>
      <text font-size="12.8" style="fill: #000000; fill-opacity: 1; stroke: none;text-anchor:middle;font-family:sans-serif;font-style:normal;font-weight:normal" x="960.892" y="642.2">
        <tspan x="960.892" y="642.2">Agora</tspan>
      </text>
    </g>
    <g>
      <rect style="fill: #ffffff; fill-opacity: 1; stroke-opacity: 1; stroke-width: 2; stroke: #000000" x="903.85" y="517.7" width="120.25" height="67" rx="0" ry="0"/>
      <line style="fill: none; stroke-opacity: 1; stroke-width: 2; stroke: #000000" x1="915.875" y1="517.7" x2="915.875" y2="584.7"/>
      <line style="fill: none; stroke-opacity: 1; stroke-width: 2; stroke: #000000" x1="903.85" y1="524.4" x2="1024.1" y2="524.4"/>
      <text font-size="12.8" style="fill: #000000; fill-opacity: 1; stroke: none;text-anchor:middle;font-family:sans-serif;font-style:normal;font-weight:normal" x="969.987" y="558.55">
        <tspan x="969.987" y="558.55">Firecloud</tspan>
      </text>
    </g>
    <g>
      <ellipse style="fill: #ffffff; fill-opacity: 1; stroke-opacity: 1; stroke-width: 2; stroke: #000000" cx="809.886" cy="630.7" rx="56.2144" ry="32"/>
      <line style="fill: none; stroke-opacity: 1; stroke-width: 2; stroke: #000000" x1="809.886" y1="662.7" x2="866.101" y2="662.7"/>
      <text font-size="12.8" style="fill: #000000; fill-opacity: 1; stroke: none;text-anchor:middle;font-family:sans-serif;font-style:normal;font-weight:normal" x="809.886" y="634.7">
        <tspan x="809.886" y="634.7"></tspan>
      </text>
    </g>
    <g>
      <path style="fill: #ffffff; fill-opacity: 1; stroke-opacity: 1; stroke-width: 2; stroke: #000000" fill-rule="evenodd" d="M 629.726 626.867 L 740.476,601.534 L 740.476,664.867 L 629.726,664.867 L 629.726,626.867z"/>
      <text font-size="12.8" style="fill: #000000; fill-opacity: 1; stroke: none;text-anchor:middle;font-family:sans-serif;font-style:normal;font-weight:normal" x="685.101" y="649.867">
        <tspan x="685.101" y="649.867"></tspan>
      </text>
    </g>
    <path style="fill: #ffffff; fill-opacity: 1; stroke-opacity: 1; stroke-width: 2; stroke: #000000" fill-rule="evenodd" d="M 514.4 515.4 C 526.7,515.4 522.6,515.4 530.8,515.4 C 539,515.4 518.5,499 539,499 C 559.5,499 539,515.4 547.2,515.4 C 555.4,515.4 559.5,515.4 563.6,515.4 C 563.6,519.5 563.6,523.6 563.6,531.8 C 563.6,540 580,519.5 580,540 C 580,560.5 563.6,540 563.6,548.2 C 563.6,556.4 563.6,560.5 563.6,564.6 C 559.5,564.6 555.4,564.6 547.2,564.6 C 539,564.6 559.5,581 539,581 C 518.5,581 539,564.6 530.8,564.6 C 522.6,564.6 518.5,564.6 514.4,564.6 C 514.4,560.5 514.4,556.4 514.4,548.2 C 514.4,540 498,560.5 498,540 C 498,519.5 514.4,540 514.4,531.8 C 514.4,523.6 514.4,519.5 514.4,515.4z"/>
    <text font-size="12.7998" style="fill: #000000; fill-opacity: 1; stroke: none;text-anchor:start;font-family:sans-serif;font-style:normal;font-weight:normal" x="522" y="543">
      <tspan x="522" y="543">bond</tspan>
    </text>
    <path style="fill: #ffffff; fill-opacity: 1; stroke-opacity: 1; stroke-width: 2; stroke: #000000" fill-rule="evenodd" d="M 396.5 707.1 C 408.8,707.1 404.7,707.1 412.9,707.1 C 421.1,707.1 400.6,690.7 421.1,690.7 C 441.6,690.7 421.1,707.1 429.3,707.1 C 437.5,707.1 441.6,707.1 445.7,707.1 C 445.7,711.2 445.7,715.3 445.7,723.5 C 445.7,731.7 462.1,711.2 462.1,731.7 C 462.1,752.2 445.7,731.7 445.7,739.9 C 445.7,748.1 445.7,752.2 445.7,756.3 C 441.6,756.3 437.5,756.3 429.3,756.3 C 421.1,756.3 441.6,772.7 421.1,772.7 C 400.6,772.7 421.1,756.3 412.9,756.3 C 404.7,756.3 400.6,756.3 396.5,756.3 C 396.5,752.2 396.5,748.1 396.5,739.9 C 396.5,731.7 380.1,752.2 380.1,731.7 C 380.1,711.2 396.5,731.7 396.5,723.5 C 396.5,715.3 396.5,711.2 396.5,707.1z"/>
    <text font-size="12.7998" style="fill: #000000; fill-opacity: 1; stroke: none;text-anchor:start;font-family:sans-serif;font-style:normal;font-weight:normal" x="404.1" y="734.7">
      <tspan x="404.1" y="734.7">fence</tspan>
    </text>
    <text font-size="12.7998" style="fill: #000000; fill-opacity: 1; stroke: none;text-anchor:start;font-family:sans-serif;font-style:normal;font-weight:normal" x="318" y="139">
      <tspan x="318" y="139">UCSC</tspan>
    </text>
    <text font-size="12.7998" style="fill: #000000; fill-opacity: 1; stroke: none;text-anchor:start;font-family:sans-serif;font-style:normal;font-weight:normal" x="19" y="514">
      <tspan x="19" y="514">UChicago</tspan>
    </text>
    <text font-size="12.7998" style="fill: #000000; fill-opacity: 1; stroke: none;text-anchor:start;font-family:sans-serif;font-style:normal;font-weight:normal" x="648.1" y="519.6">
      <tspan x="648.1" y="519.6">Broad</tspan>
    </text>
    <g>
      <rect style="fill: #ffffff; fill-opacity: 1; stroke-opacity: 1; stroke-width: 2; stroke: #000000" x="15.325" y="683" width="118.85" height="38" rx="0" ry="0"/>
      <text font-size="12.7998" style="fill: #000000; fill-opacity: 1; stroke: none;text-anchor:middle;font-family:sans-serif;font-style:normal;font-weight:normal" x="74.75" y="705.9">
        <tspan x="74.75" y="705.9">data dictionary</tspan>
      </text>
    </g>
    <g>
      <rect style="fill: #ffffff; fill-opacity: 1; stroke-opacity: 1; stroke-width: 2; stroke: #000000" x="309.75" y="309.7" width="118.85" height="38" rx="0" ry="0"/>
      <text font-size="12.7998" style="fill: #000000; fill-opacity: 1; stroke: none;text-anchor:middle;font-family:sans-serif;font-style:normal;font-weight:normal" x="369.175" y="332.6">
        <tspan x="369.175" y="332.6">n/a</tspan>
      </text>
    </g>
    <g>
      <rect style="fill: #ffffff; fill-opacity: 1; stroke-opacity: 1; stroke-width: 2; stroke: #000000" x="630.75" y="690.7" width="118.85" height="38" rx="0" ry="0"/>
      <text font-size="12.7998" style="fill: #000000; fill-opacity: 1; stroke: none;text-anchor:middle;font-family:sans-serif;font-style:normal;font-weight:normal" x="690.175" y="713.6">
        <tspan x="690.175" y="713.6">n/a</tspan>
      </text>
    </g>
    <path style="fill: #ffffff; fill-opacity: 1; stroke-opacity: 1; stroke-width: 2; stroke: #000000" fill-rule="evenodd" d="M 1013.15 725.1 C 1025.45,725.1 1021.35,725.1 1029.55,725.1 C 1037.75,725.1 1017.25,708.7 1037.75,708.7 C 1058.25,708.7 1037.75,725.1 1045.95,725.1 C 1054.15,725.1 1058.25,725.1 1062.35,725.1 C 1062.35,729.2 1062.35,733.3 1062.35,741.5 C 1062.35,749.7 1078.75,729.2 1078.75,749.7 C 1078.75,770.2 1062.35,749.7 1062.35,757.9 C 1062.35,766.1 1062.35,770.2 1062.35,774.3 C 1058.25,774.3 1054.15,774.3 1045.95,774.3 C 1037.75,774.3 1058.25,790.7 1037.75,790.7 C 1017.25,790.7 1037.75,774.3 1029.55,774.3 C 1021.35,774.3 1017.25,774.3 1013.15,774.3 C 1013.15,770.2 1013.15,766.1 1013.15,757.9 C 1013.15,749.7 996.75,770.2 996.75,749.7 C 996.75,729.2 1013.15,749.7 1013.15,741.5 C 1013.15,733.3 1013.15,729.2 1013.15,725.1z"/>
    <text font-size="12.7998" style="fill: #000000; fill-opacity: 1; stroke: none;text-anchor:start;font-family:sans-serif;font-style:normal;font-weight:normal" x="1025.75" y="752.7">
      <tspan x="1025.75" y="752.7">sam</tspan>
    </text>
    <path style="fill: #ffffff; fill-opacity: 1; stroke-opacity: 1; stroke-width: 2; stroke: #000000" fill-rule="evenodd" d="M 698.15 332.1 C 710.45,332.1 706.35,332.1 714.55,332.1 C 722.75,332.1 702.25,315.7 722.75,315.7 C 743.25,315.7 722.75,332.1 730.95,332.1 C 739.15,332.1 743.25,332.1 747.35,332.1 C 747.35,336.2 747.35,340.3 747.35,348.5 C 747.35,356.7 763.75,336.2 763.75,356.7 C 763.75,377.2 747.35,356.7 747.35,364.9 C 747.35,373.1 747.35,377.2 747.35,381.3 C 743.25,381.3 739.15,381.3 730.95,381.3 C 722.75,381.3 743.25,397.7 722.75,397.7 C 702.25,397.7 722.75,381.3 714.55,381.3 C 706.35,381.3 702.25,381.3 698.15,381.3 C 698.15,377.2 698.15,373.1 698.15,364.9 C 698.15,356.7 681.75,377.2 681.75,356.7 C 681.75,336.2 698.15,356.7 698.15,348.5 C 698.15,340.3 698.15,336.2 698.15,332.1z"/>
  </g>
</svg>
